#!OML:ASF H:\MichaelJackson\Top Level 1\Subject 1\Session 1\male.ASF
:FULLY-SPECIFIED
:DEGREES
345
root 6.61618 15.2045 -22.8204 -4.79403 79.6024 -1.29702
lowerback 8.0105 -3.14501 0.177587
upperback 4.16494 -4.00089 2.9781
thorax 0.029894 -1.97343 3.28103
lowerneck 1.54602 -17.0078 -6.24795
upperneck -0.304879 -22.8319 8.42023
head 1.44945 -11.4358 3.19036
rclavicle 9.14409e-015 -2.38542e-014
rhumerus -45.6033 39.7988 -71.3778
rradius 82.3178
rwrist 5.63869
rhand 4.05743 -0.396053
rfingers 7.12502
rthumb 29.4705 331.922
lclavicle 9.14409e-015 -2.38542e-014
lhumerus -37.4518 -17.4078 95.1063
lradius 47.7761
lwrist 13.0569
lhand -19.4209 -2.97818
lfingers 7.12502
lthumb 6.89884 26.8894
rfemur -18.7108 5.25552 -14.5024
rtibia 57.9469
rfoot 19.4585 -13.5324
rtoes 36.1727
lfemur -24.1576 13.7535 -3.88301
ltibia 57.4426
lfoot -31.7137 -11.7183
ltoes -15.3304
346
root 6.60566 15.2036 -22.689 -4.56274 78.5214 -1.20592
lowerback 7.79449 -3.10396 0.193797
upperback 4.11627 -3.95507 2.95434
thorax 0.0927995 -1.95265 3.23245
lowerneck 1.51048 -16.7879 -6.08457
upperneck -0.264461 -22.5329 8.34009
head 1.41525 -11.285 3.15826
rclavicle -4.25399e-014 6.36111e-015
rhumerus -45.5848 40.5519 -70.5432
rradius 85.4504
rwrist 1.29837
rhand 10.9217 -2.72383
rfingers 7.12502
rthumb 36 330.96
lclavicle -4.25399e-014 6.36111e-015
lhumerus -37.9904 -15.7946 94.5483
lradius 47.1859
lwrist 12.1396
lhand -21.1867 -4.13386
lfingers 7.12502
lthumb 5.19412 25.7825
rfemur -18.1891 5.03872 -14.6652
rtibia 56.519
rfoot 20.5386 -12.1026
rtoes 35.1928
lfemur -23.5056 13.9133 -3.17842
ltibia 56.828
lfoot -31.5355 -10.7594
ltoes -16.7997
347
root 6.59046 15.2076 -22.5504 -4.33983 77.3399 -1.14759
lowerback 7.56323 -3.04726 0.187849
upperback 4.06488 -3.89079 2.91869
thorax 0.161118 -1.92309 3.18214
lowerneck 1.456 -16.549 -5.90866
upperneck -0.162922 -22.2108 8.24829
head 1.40036 -11.1215 3.11661
rclavicle 1.80894e-014 -2.3059e-014
rhumerus -45.4089 41.0215 -69.7065
rradius 88.2426
rwrist -2.82911
rhand 16.3792 -5.89779
rfingers 7.12502
rthumb 41.1482 329.233
lclavicle 1.80894e-014 -2.3059e-014
lhumerus -38.5667 -14.1003 93.9021
lradius 46.6367
lwrist 11.5102
lhand -23.0017 -5.0382
lfingers 7.12502
lthumb 3.44144 24.9138
rfemur -17.8696 4.6632 -14.6896
rtibia 55.2008
rfoot 21.6499 -10.8679
rtoes 33.4417
lfemur -22.7522 13.9785 -2.44737
ltibia 56.0618
lfoot -31.2408 -9.64785
ltoes -18.2977
348
root 6.57069 15.2168 -22.4047 -4.08011 76.059 -1.07583
lowerback 7.30697 -2.97198 0.154686
upperback 4.01347 -3.80462 2.86466
thorax 0.242751 -1.88312 3.12556
lowerneck 1.37613 -16.2945 -5.71696
upperneck 0.0137301 -21.8703 8.14341
head 1.41035 -10.9472 3.06301
rclavicle 3.86636e-014 -3.49861e-014
rhumerus -45.1072 41.2174 -68.9147
rradius 90.6491
rwrist -6.26736
rhand 20.1191 -9.10085
rfingers 7.12502
rthumb 44.646 327.261
lclavicle 3.86636e-014 -3.49861e-014
lhumerus -39.223 -12.4481 93.2119
lradius 46.2355
lwrist 11.4106
lhand -24.8037 -5.41858
lfingers 7.12502
lthumb 1.70114 24.5544
rfemur -17.7379 4.13141 -14.5712
rtibia 54.0265
rfoot 22.5642 -10.0602
rtoes 31.114
lfemur -21.8817 13.9206 -1.70926
ltibia 55.1256
lfoot -30.817 -8.35372
ltoes -19.8166
349
root 6.54702 15.2327 -22.2516 -3.77773 74.6731 -0.971961
lowerback 7.02403 -2.87645 0.0938074
upperback 3.96645 -3.69408 2.7838
thorax 0.342544 -1.83148 3.05423
lowerneck 1.27553 -16.0248 -5.51619
upperneck 0.271718 -21.5131 8.03662
head 1.44904 -10.7628 3.00196
rclavicle -8.13029e-014 -9.54166e-015
rhumerus -44.7171 41.1537 -68.2317
rradius 92.6231
rwrist -8.69183
rhand 22.1805 -11.5829
rfingers 7.12502
rthumb 46.5607 325.56
lclavicle -8.13029e-014 -9.54166e-015
lhumerus -39.9125 -10.8278 92.4659
lradius 45.913
lwrist 11.8115
lhand -26.3825 -5.32231
lfingers 7.12502
lthumb 0.176348 24.6574
rfemur -17.7764 3.45648 -14.2974
rtibia 53.0286
rfoot 23.0952 -9.74108
rtoes 28.0927
lfemur -20.8625 13.7146 -0.979029
ltibia 54.004
lfoot -30.2356 -6.87318
ltoes -21.2889
350
root 6.51994 15.2559 -22.0909 -3.39493 73.1926 -0.795976
lowerback 6.70744 -2.75843 -0.014976
upperback 3.92102 -3.55698 2.67805
thorax 0.462829 -1.76745 2.98149
lowerneck 1.15702 -15.7466 -5.30731
upperneck 0.608132 -21.1481 7.91534
head 1.51422 -10.5729 2.93006
rclavicle -7.45443e-015 -1.43125e-014
rhumerus -44.3123 40.9078 -67.7099
rradius 94.2196
rwrist -10.0924
rhand 22.6383 -13.2356
rfingers 7.12502
rthumb 46.9845 324.091
lclavicle -7.45443e-015 -1.43125e-014
lhumerus -40.6795 -9.34864 91.7128
lradius 45.7368
lwrist 12.7527
lhand -27.6521 -4.6921
lfingers 7.12502
lthumb -1.04993 25.2851
rfemur -17.9631 2.64052 -13.8778
rtibia 52.2262
rfoot 23.0402 -9.93119
rtoes 24.5149
lfemur -19.6971 13.3397 -0.29208
ltibia 52.6986
lfoot -29.4627 -5.17891
ltoes -22.7029
351
root 6.48972 15.2866 -21.9218 -2.96042 71.619 -0.562507
lowerback 6.36109 -2.62077 -0.165776
upperback 3.8799 -3.3958 2.53721
thorax 0.603351 -1.69205 2.89439
lowerneck 1.03145 -15.4568 -5.07885
upperneck 1.01126 -20.7706 7.77949
head 1.59876 -10.3752 2.84785
rclavicle 4.58199e-014 7.95139e-016
rhumerus -43.9362 40.5255 -67.421
rradius 95.476
rwrist -10.65
rhand 21.6237 -14.0747
rfingers 7.12502
rthumb 46.0446 322.849
lclavicle 4.58199e-014 7.95139e-016
lhumerus -41.548 -8.09677 90.9738
lradius 45.7389
lwrist 14.1875
lhand -28.7318 -3.27113
lfingers 7.12502
lthumb -2.09268 26.6984
rfemur -18.262 1.70609 -13.3074
rtibia 51.6108
rfoot 22.3196 -10.5714
rtoes 20.5214
lfemur -18.3805 12.789 0.336535
ltibia 51.2278
lfoot -28.4595 -3.2785
ltoes -23.9972
352
root 6.45655 15.325 -21.7435 -2.52233 69.9573 -0.320516
lowerback 5.98315 -2.46619 -0.371976
upperback 3.83971 -3.21356 2.37845
thorax 0.763646 -1.60717 2.81897
lowerneck 0.89806 -15.1545 -4.83343
upperneck 1.47413 -20.3788 7.61116
head 1.69876 -10.169 2.75084
rclavicle -2.48481e-014 -1.51076e-014
rhumerus -43.6063 40.0452 -67.3793
rradius 96.4281
rwrist -10.577
rhand 19.2529 -14.3528
rfingers 7.12502
rthumb 43.8385 321.704
lclavicle -2.48481e-014 -1.51076e-014
lhumerus -42.4729 -7.02601 90.2519
lradius 45.8103
lwrist 15.8643
lhand -29.429 -1.40164
lfingers 7.12502
lthumb -2.76605 28.5602
rfemur -18.6431 0.69543 -12.5757
rtibia 51.1452
rfoot 20.9865 -11.625
rtoes 16.3443
lfemur -16.9367 12.0733 0.901996
ltibia 49.6288
lfoot -27.1872 -1.15764
ltoes -25.2049
